inDegrees=no
num_controls=7
num_derivatives=13
num_iterations=194
num_multipliers=7
num_parameters=0
num_slacks=7
num_states=26
objective=5.817916
objective_accelerations=0.483994
objective_balance=0.054118
objective_effort=0.437691
objective_height=4.724271
objective_ligament=0.117841
solver_duration=1980.725116
status=Solve_Succeeded
success=true
DataType=double
version=3
OpenSimVersion=4.4-2022-07-23-0e9fedc
endheader
time	/jointset/ground_pelvis/pelvis_tilt/value	/jointset/ground_pelvis/pelvis_tx/value	/jointset/ground_pelvis/pelvis_ty/value	/jointset/hip_l/hip_flexion_l/value	/jointset/hip_l/hip_adduction_l/value	/jointset/hip_l/hip_rotation_l/value	/jointset/back/lumbar_extension/value	/jointset/patellofemoral_l/patellar_flexion_l/value	/jointset/knee_l/knee_flexion_l/value	/jointset/knee_l/knee_adduction_l/value	/jointset/knee_l/knee_rotation_l/value	/jointset/ankle_l/ankle_angle_l/value	/jointset/subtalar_l/subtalar_angle_l/value	/jointset/ground_pelvis/pelvis_tilt/speed	/jointset/ground_pelvis/pelvis_tx/speed	/jointset/ground_pelvis/pelvis_ty/speed	/jointset/hip_l/hip_flexion_l/speed	/jointset/hip_l/hip_adduction_l/speed	/jointset/hip_l/hip_rotation_l/speed	/jointset/back/lumbar_extension/speed	/jointset/patellofemoral_l/patellar_flexion_l/speed	/jointset/knee_l/knee_flexion_l/speed	/jointset/knee_l/knee_adduction_l/speed	/jointset/knee_l/knee_rotation_l/speed	/jointset/ankle_l/ankle_angle_l/speed	/jointset/subtalar_l/subtalar_angle_l/speed	/forceset/tau_hip_flexion_l	/forceset/tau_hip_adduction_l	/forceset/tau_hip_rotation_l	/forceset/tau_knee_flexion_l	/forceset/tau_ankle_angle_l	/forceset/tau_subtalar_angle_l	/forceset/tau_lumbar_extension	lambda_cid13_p0	lambda_cid13_p1	lambda_cid13_p2	lambda_cid13_p3	lambda_cid13_p4	lambda_cid13_p5	lambda_cid14_p0	/jointset/ground_pelvis/pelvis_tilt/accel	/jointset/ground_pelvis/pelvis_tx/accel	/jointset/ground_pelvis/pelvis_ty/accel	/jointset/hip_l/hip_flexion_l/accel	/jointset/hip_l/hip_adduction_l/accel	/jointset/hip_l/hip_rotation_l/accel	/jointset/back/lumbar_extension/accel	/jointset/patellofemoral_l/patellar_flexion_l/accel	/jointset/knee_l/knee_flexion_l/accel	/jointset/knee_l/knee_adduction_l/accel	/jointset/knee_l/knee_rotation_l/accel	/jointset/ankle_l/ankle_angle_l/accel	/jointset/subtalar_l/subtalar_angle_l/accel	gamma_cid13_p0	gamma_cid13_p1	gamma_cid13_p2	gamma_cid13_p3	gamma_cid13_p4	gamma_cid13_p5	gamma_cid14_p0
1.5	0.05407660730371267	0.01707759509134168	0.8673539862065904	0.5616878093851609	-0.3215536937586765	-0.1462840987076487	-0.7827552309103804	0.7485688078673848	0.7485688078672643	-0.1026828142414683	-0.174532680731587	0.1903178958342552	0.03973220617909116	0.201513630951847	0.1801501248447404	0.3629191432988765	-1.694110686485718	0.09999648358732523	-0.6164780591100831	0.8453736014457367	-1.925467636960244	-1.925467636960254	-0.1322308974424233	6.78175742463416e-05	-0.5499254102101826	-0.08712610924738809	-0.162185564415693	0.02559971629446896	-0.005508400497035887	-0.2254070104189487	0.02707184849447979	0.04114420471636165	0.25672179642254	-33.17422575765768	-15.13093831839075	5.465315235520356	-3.614618657063839	-670.4997283398959	-78.47081816095728	-16.32332096083015	-0.1535797062411456	0.4890837611237402	-0.577157998533032	-0.4424227367650804	0.4058354529273748	-0.3043298887835293	1.727745778522225	-0.9054331743661599	-0.9054331743661624	-0.302951664355855	0.0257826910906769	-0.2965839153908533	0.3990897508230774	2.650875702029021e-07	1.132816256461385e-06	-1.213580401934125e-06	3.495715154225802e-08	3.453424954683688e-07	8.563415075497788e-07	2.490485166873508e-07
1.51	0.05608410439909808	0.01890336590689698	0.8709536465475994	0.54472599138753	-0.3205341468429183	-0.1524647562844212	-0.7742165617480936	0.7292710572274541	0.729271057227468	-0.1040209709373007	-0.1745325349502465	0.1848043395821805	0.03888014358690598	0.1999656318171594	0.1849824126382646	0.3569414778945578	-1.698039544684478	0.103904719981643	-0.6195634862681214	0.8622410324525751	-1.933817725302134	-1.93381772530214	-0.1354234216097599	-2.165144085717594e-05	-0.5526968012625543	-0.08327346747327358	-0.1560243529098098	0.02455533793697173	-0.00532764184420647	-0.2218623923847411	0.02903491337158717	0.04029366359113343	0.2504845360452712	-32.37705086883904	-14.91673922582106	5.448997652338828	-3.691694219840818	-666.7833378058042	-78.27212913203337	-16.9956672154441	-0.1584381924451486	0.4770964604109433	-0.618739354367558	-0.3361174588886321	0.3819423181157193	-0.2969646826770465	1.648361977935259	-0.7601200815607481	-0.7601200815600849	-0.3305817313971004	-0.02380938065113337	-0.2540023338290235	0.3800472410619005	1.719462916938259e-07	1.567388638405879e-06	-6.287092688411226e-07	1.406389711401637e-07	2.774937575949671e-07	8.455076081337924e-07	2.109874032694557e-07
1.52	0.05807551586806452	0.02077681863477641	0.8744913965259679	0.5277312847884201	-0.3194757926461295	-0.1586735312434478	-0.7655127942325045	0.7098977410206139	0.7098977410207595	-0.1053916886625031	-0.174532783395591	0.1792657522928483	0.03806694658253326	0.1982965056679675	0.1896865073095677	0.3505370707707782	-1.700688406781525	0.1077579397932309	-0.6221015355606828	0.8783932721062356	-1.940580750342437	-1.940580750342438	-0.1387431033160779	-1.10277695717544e-05	-0.5549316176616748	-0.07935299168490893	-0.14986314140393	0.02351095957947244	-0.005146883191385388	-0.2183177743505351	0.03099797824869324	0.03944312246590221	0.2442472756680006	-31.57836679074753	-14.70534986090376	5.436036225339356	-3.802661031581222	-663.0725265130045	-78.10382174064529	-17.65963323621211	-0.1778051091419696	0.4634451366794577	-0.6625063424251996	-0.1864235164224424	0.3948321363814221	-0.1948543156881922	1.584707507886688	-0.5880205140486459	-0.5880205140486229	-0.3283831721521451	0.04580122836843967	-0.1892689847406281	0.4126565536730842	1.09245497171626e-07	1.831140645199909e-06	-2.659838795560149e-07	2.09030309211867e-07	2.250308982244856e-07	8.28548699569415e-07	1.873397475310528e-07
1.53	0.06004951426995846	0.02269662751989589	0.8779630131407578	0.5107167219129514	-0.3183791013673635	-0.1649056351929998	-0.756651127882879	0.690464912502016	0.6904649125020969	-0.1067956050063079	-0.174532853600168	0.1737075894492535	0.03729344335610801	0.1964810601070657	0.1942487880146716	0.343721899202392	-1.70200474299393	0.1115715701792128	-0.6242525400058608	0.8938030754080321	-1.945713387321121	-1.945713387321121	-0.1420403729483071	-2.34223210653961e-06	-0.5566087911105251	-0.07533392000656608	-0.1434872041710462	0.02208813554699367	-0.005036279544993771	-0.2151818712871134	0.03323644611938431	0.0386676581433455	0.2378592599784451	-30.70303644190653	-14.54252395633339	5.433714977688513	-3.924426587452032	-659.5698223991727	-78.09866123375186	-18.31510495167026	-0.1867434234202322	0.4486979229500712	-0.7006415955621482	-0.07133982689702996	0.3731049559717916	-0.2150514160850348	1.498578379729047	-0.4351852903673631	-0.4351852903670269	-0.3301230046765782	-0.02150241133294241	-0.1430583569940968	0.3982914718018943	7.888771688548188e-08	1.913396003396573e-06	-1.392883430667936e-07	2.378005106619807e-07	1.889155347633568e-07	8.050819687848723e-07	1.790063905771102e-07
1.54	0.06200469238747246	0.02466127488917132	0.8813645542335603	0.4936955754447091	-0.3172445784914842	-0.1711572147684341	-0.7476394711725552	0.6709888976135128	0.6709888976135299	-0.1082324388756178	-0.1745328178749405	0.168135431504763	0.03656048264584363	0.1945324487919247	0.1986542041407562	0.3365219663733232	-1.702005125336235	0.1153242592158029	-0.6259966607371366	0.9083913442459427	-1.949218024323366	-1.949218024323363	-0.1453266084172672	1.015819461880506e-05	-0.5577306378408509	-0.07124448845274289	-0.137111266938164	0.02066531151451699	-0.004925675898590903	-0.2120459682236933	0.03547491399007551	0.03789219382079141	0.231471244288888	-29.829321686465	-14.38064875278381	5.432954651083448	-4.067664274848836	-656.1148114310369	-78.1205724308374	-18.95145886951319	-0.2044382599897805	0.4320722208755551	-0.7394585945617185	0.07676725759748169	0.382643866503064	-0.113477572907739	1.420400615109557	-0.2624205187606892	-0.2624205187606942	-0.3261763394983598	0.04656420622047004	-0.07820364103576766	0.4267285287691451	5.099055770842797e-08	1.965791174836445e-06	-3.039098551674831e-08	2.593764348253559e-07	1.574443836754188e-07	7.726571905792232e-07	1.701061893175276e-07
